
<svg xmlns="http://www.w3.org/2000/svg" version="1.1" xmlns:xlink="http://www.w3.org/1999/xlink" preserveAspectRatio="none" x="0px" y="0px" width="850px" height="180px" viewBox="0 0 850 180">
<defs>
<g id="Layer4_0_FILL">
<path fill="#FFFFFF" stroke="none" d="
M 491.25 163.4
Q 527.35 178.025 579.25 168.55
L 553.1 122.5
Q 499.85 150 444.1 80 433.3 66.45 420.7 55.55 420.7 56.05 420.65 56.7 420.6 58.75 420.9 61.05 421.3 63.35 420.9 64.25 420.5 65.05 419.6 65.4 419.4 65.45 419.25 65.5 418.95 66.5 418.45 67.55
L 417.8 68.7
Q 417.15 69.75 414.95 71.3
L 413.95 72
Q 412.2 73.25 411.1 73.25 410.9 73.25 410.75 73.25 410.8 73.4 410.85 73.55 410.9 73.8 410.95 74.15 411.45 74.1 411.9 74.25 413.15 74.65 414.45 76.1 415.05 75.95 415.85 76.2 417.25 76.65 418 78.05 418.3 78.65 418.5 79.3 419.1 79.8 419.7 81.3
L 420.9 84.6
Q 421.8 86.85 421.25 88.15 420.85 89.15 419.65 89.45 419.6 89.45 419.55 89.5
L 419.55 90.15
Q 419.6 90.4 419.65 90.7 420 93.3 419.75 96.45
L 419.6 98.55
Q 455.2 148.825 491.25 163.4
M 365.3 38.25
Q 365.55 38.45 365.75 38.75 366.45 38.85 367.1 39.45 368 40.3 368.2 42.7
L 368.35 44.25
Q 368.5 45.45 368.35 46.2 373.85 49.55 378.9 53.15 378.8 52.45 378.75 51.65 378.55 48 379.1 45.65 378.45 43.75 378.2 42.7 377.85 40.55 378.95 39.45 379.6 38.85 381.2 38.55 383.95 38 387.15 37.9 388.5 37.8 389.25 38.25 390.2 38.75 390.45 39.8 394.8 39.5 399.15 39.75 345.5 6.35 265.45 11.35 318.7 20.65 354.75 38.7 355.5 38.45 356.8 38.4
L 362.05 37.65
Q 364.3 37.35 365.3 38.25
M 405.1 61.05
L 405.1 61 404.85 60.25
Q 404.55 59.35 404.5 58.9
L 404.45 57.55
Q 404.45 56.55 404.15 54.55
L 404 53.2 404 53.15
Q 403.85 52.95 403.75 52.75 403.3 51.95 403.2 50.45 403.2 50.25 403.2 50.05 399.3 49.7 395.55 49.9 395.5 50.2 395.45 52.1 395.45 53.05 395.2 53.75 395.25 54 395.3 54.4 395.4 55.3 395.85 57.1 396 57.95 396 59.75
L 396.05 67.25
Q 396.05 67.4 396.05 67.6 396.75 68.25 397.4 68.95 398.1 68.8 399.1 68.75 399.9 68.7 400.65 68.65 400.7 68.5 400.75 68.4 400.95 68 402.3 66.65 403.15 65.9 404 64.9 404.1 63.95 404.35 63 404.65 61.85 405.1 61.05 Z"/>

<path fill="#FFFFFF" fill-opacity="0.4666666666666667" stroke="none" d="
M 163.7 39.15
Q 198.05 14.8 265.45 11.35 164.5 5.05 128.3 35.5
L 128.3 102.9
Q 130.15 79.8 141.15 62.45 141 62.25 140.9 62 140.15 62.6 139.25 62.6 138.25 62.6 137.6 61.95 137.3 61.65 137.1 61.15 136.35 60.7 135.7 59.5 134.9 58.05 134.25 55.3
L 133.85 53.5
Q 133.75 52.75 133.75 51.2
L 133.8 43.2
Q 133.8 41.95 134 41.4 134.2 40.95 134.5 40.65 134.4 40.05 134.55 39.4 134.95 38 136.35 37.35 137.2 36.9 139.25 36.9
L 142.4 36.9
Q 143.8 36.9 144.4 37.2 144.65 37.3 144.85 37.45 145.65 37.55 146.2 38.15 146.9 38.85 147 40 147.05 40.4 146.9 42.05
L 146.65 44.05
Q 147.15 46.7 147 50.3 147 52 146.45 52.75 146.2 53.15 145.8 53.35 145.8 53.4 145.8 53.45
L 145.85 55.9
Q 149.3 51.45 153.5 47.5 153.45 47.35 153.4 47.15 153.35 46.75 153.45 45.35 153.55 44.45 153.55 43.1 153.55 41.15 153.55 40.85 153.55 40.1 153.65 39.75 154.1 38.45 155.6 37.85 156.6 37.45 158.35 37.35 160.45 37.25 161.8 37.75 163.1 38.2 163.7 39.15 Z"/>
</g>

<g id="Layer4_1_FILL">
<path fill="#FFFFFF" fill-opacity="0.5490196078431373" stroke="none" d="
M 94.5 134.85
Q 94.05 134.85 93.65 134.95 93.3 135.05 93.05 135.2 92.55 135.85 92.15 136.3 91.5 136.4 90.7 137.45 89.85 138.5 89.85 139.15 89.85 139.95 90 140.4 90.2 140.85 90.5 141.05 90.8 141.05 91.2 141.05 91.55 141.1 91.9 141.15 92.05 141.15 92.45 141.05 92.75 140.85 93.3 140.5 93.8 140.2 94.15 139.85 94.5 139.45 94.7 138.95 94.8 138.7 95 138.2 95.15 137.65 95.4 136.85 95.5 136.4 95.6 135.75 95.6 135.3 95.35 135.1 95.1 134.85 94.5 134.85
M 127.25 128
Q 127.1 127.75 126.8 127.5 126.45 127.5 125.85 127.8 125.3 128.1 124.5 128.75 123.65 129.5 122.85 130.4 122 131.25 121.15 132.2 120.7 132.8 120 133.8 119.3 134.8 118.35 136.15 118 136.85 117.7 137.35 117.4 137.8 117.25 138.2 117.1 138.6 116.9 138.9 116.75 139.2 116.6 139.4 116.1 140.2 115.7 141.1 115.25 142.05 115 143.2 114.7 144.1 114.5 144.8 114.25 145.5 114.05 145.95 113.6 147.5 113.3 148.65 113.05 149.8 112.85 150.6 112.8 150.85 112.6 151.15 112.35 151.5 112 151.85 111.85 152 111.55 152.25 111.3 152.55 110.75 152.95
L 110.75 153
Q 109.280859375 154.2658203125 108.45 154.95 107.55 155.6 107.45 155.6 107.2 155.6 107.1 155.4 107 155.25 107 154.85 107 154.45 107.2 153.25 107.35 152.05 107.75 150.15 108.35 147.75 108.8 145.95 109.3 144.2 109.7 143.05 109.8 142.6 109.85 142.3 109.95 141.95 110 141.7
L 111.55 141.4
Q 111.8 141.35 111.95 140.65 112.05 139.9 112.05 138.5 112.05 138.2 112.05 138 111.95 137.75 111.8 137.65 111.65 137.5 111.6 137.4 111.5 137.3 111.45 137.2 111.5 136.8 111.8 135.95 112.15 135.05 112.15 134.55 112.15 133.85 111.85 133.5 111.55 133.2 111 133.2 109.95 133.2 109.05 135.35 108.15 137.5 107.3 137.6
L 106.55 137.35
Q 106.2 137.4 105.95 137.5 105.65 137.55 105.35 137.6 105.1 137.55 104.7 137.5 104.25 137.45 103.65 137.45 103.35 137.5 103 137.6 102.55 137.5 102 137.45 101.4 137.4 100.8 137.4 100.15 137.4 99.85 138.15 99.5 138.95 99.5 140.4 99.5 140.6 99.7 140.8 99.8 140.9 100.1 141 100.3 141.1 100.5 141.2 100.65 141.25 100.9 141.35 101.1 141.35 101.5 141.4 101.95 141.4 102.1 141.4
L 105 141.4
Q 105.15 141.4 105.45 141.35 105.75 141.25 105.9 141.25 106.05 141.25 106.15 141.35 106.2 141.4 106.2 141.55 105.9 142.15 105.7 142.55 105.45 143 105.3 143.25 103.75 145.95 102.25 148.05 100.65 150.15 99.05 151.7 98.75 152.05 98.55 152.3 98.3 152.6 98.15 152.8
L 98.05 152.95
Q 98.15 153.05 98.25 153.15 98.3 153.25 98.35 153.4 98.5388671875 153.9193359375 98.65 154.35
L 98.05 152.95
Q 97.7 153.25 97.35 153.6 96.95 153.9 96.6 154.2 96.15 154.55 95.7 154.7 95.25 154.85 94.85 154.85 94.5 154.85 94.3 154.75 94.05 154.65 93.95 154.4 93.85 154.25 93.6 153.35 93.35 152.4 93.2 151.95 93.1 151.2 93 150.5 92.85 149.75 92.7 149.05 92.5 148.25 91.95 147.85 91.4 147.45 90.6 147.45 90.3 147.45 90 147.6 89.7 147.75 89.45 148.15 88.85 149 87.3 150.35 85.75 151.7 85.15 152.55
L 85.05 152.8 84.9 152.95
Q 85 153.05 85.1 153.15 85.15 153.25 85.2 153.4 85.4 153.95 85.55 154.35 85.75 154.75 85.85 155.05 86.75 154.1 87.35 153.6 88 153.1 88.35 153.1 88.5 153.1 88.7 153.35 88.9 153.65 89.15 154.15 89.4 154.5 89.6 154.75 89.75 155 89.85 155.2 90.6 157.4 91.25 157.85 91.85 158.35 93.95 158.35 94.3 158.35 94.95 158.05 95.6 157.7 96.55 157 97.4 156.4 98.05 155.9 98.6 155.45 99 155.05 99.2 154.75 99.4 154.5 99.6 154.25 99.65 154.15 100.85 153 102.05 151.9 102.8 151.2 103.35 150.6 103.9 150 104.25 149.45
L 104.5 149.3
Q 104.65 149.4 104.65 149.5 104.4 150.15 104.15 150.7 103.95 151.6 103.85 152.5 103.75 153 103.65 153.4 103.6 153.8 103.6 154 103.55 154.15 103.45 154.35 103.25 154.95 103.15 155.9 103.1 156.9 103.1 158.2 103.1 159.45 103.6 160.05 104.05 160.65 105.05 160.65 105.55 160.65 106.05 160.35 106.6 160.1 107.15 159.5 107.55 159.05 107.95 158.6 108.35 158.15 108.75 157.7 109.2 157.3 109.55 157 109.85 156.65 110.1 156.4 110.65 156 111.1 155.65 111.5 155.3 111.75 155.05
L 111.75 155
Q 111.910546875 154.9341796875 112 154.8 112.15 154.7 112.2 154.6 112.35 154.6 112.4 154.7 112.45 154.75 112.45 154.85 112.35 155.2 112.3 155.5 112.25 155.6 112.25 155.8 112.2 155.95 112.2 156.15 112.2 156.8 112.4 157.8 112.5 158.7 112.8 160 112.9 160.4 113.4 160.6 113.85 160.8 114.75 160.8 115.15 160.8 115.75 160.35 116.3 159.85 117.05 158.95 117.7 158.1 118.15 157.45 118.6 156.75 118.85 156.2 119.25 155.7 119.7 155.2 120.05 154.75 120.45 154.25
L 120.55 154.25
Q 120.75 154.25 121.5 155.6 122.25 156.9 123.65 156.9 124.6 156.9 125.3 156.8 125.95 156.7 126.35 156.45 126.9 156.15 127.45 155.8 128 155.45 128.55 155.05 128.3 154.5 128.1 153.95 127.85 153.4 127.65 152.95 126.7 153.15 125.95 153.3 125.35 153.3 124.95 152.95 124.5 152.65 124.2 151.95 124.2 151.85 124 151.2 123.85 150.55 123.55 149.4 123.35 148.75 123.1 148.4 122.85 148.05 122.55 148.05 122.45 148.05 122.25 148.1 122.1 148.15 121.85 148.25
L 121.05 148.6
Q 120.7 148.75 120.2 149.6 119.65 150.4 119 151.9 118.25 153.6 117.65 154.65 117.05 155.7 116.65 156.1 116.4 156.35 116.2 156.55 115.95 156.75 115.85 156.95 115.7 156.95 115.65 156.75 115.55 156.55 115.55 156.15 115.55 155.15 115.8 153.85 116 152.5 116.45 150.75 117.6 149.3 118.45 148.25 119.35 147.2 119.9 146.5 121 145.05 121.65 144.15 122.25 143.3 122.4 142.9 122.85 142.4 123.2 142.05 123.55 141.65 123.65 141.35 124.2 140.5 124.6 139.85 124.95 139.15 125.15 138.75 125.65 137.95 126 137.3 126.35 136.65 126.55 136.3 126.95 135.2 127.3 134.45 127.65 133.65 127.95 133.1 128 132.9 128.05 132.65 128.1 132.45 128.1 132.1 128.15 131.85 128.25 131.6 128.3 131.35 128.45 131.2 128.6 130.7 128.65 130.4 128.7 130.05 128.7 129.85 128.7 128.9 128.45 128.45 128.15 127.95 127.55 127.95 127.4 128 127.25 128
M 122.75 135.35
Q 123.9 133.55 124.7 132.65 125.45 131.75 125.7 131.75 125.85 131.75 125.95 131.85 126 131.95 126 132.1 126 132.4 125.7 133.1 125.4 133.8 124.85 134.9 123.85 137.05 122.95 138.65 122.1 140.25 121.25 141.35 120.45 142.45 119.8 143.3 119.15 144.15 118.65 144.65 118.35 145.1 117.9 145.55
L 117.75 145.4
Q 117.8 145.3 118.1 144.65 118.35 143.95 118.75 142.75 119.2 141.6 119.65 140.35 119.65 140.05 119.8 139.75 119.9 139.5 120.2 139.2 120.8 138.25 121.45 137.3 122.1 136.3 122.75 135.35
M 16.5 129.25
Q 16.5 128.45 15.85 128.1 15.1 127.7 13.7 127.7 13.45 127.7 13.1 127.75 12.7 127.85 12.15 128 11.9 127.85 11.7 127.8 11.55 127.7 11.4 127.7
L 10.65 128
Q 10.4 127.9 10.1 127.85 7.2 128.5 5.7 130 4.25 131.55 3.35 133 2.5 134.4 2.2 135.85 2.05 136.85 1.9 137.9 1.9 138 1.95 138.3 2.05 138.6 2.05 138.75 1.9 139.15 1.8 139.45 1.7 139.75 1.6 140.55 1.45 141.4 1.35 142.7 1.3 143.85 1.1 144.45 0.95 145.05 0.7 145.2 0.35 145.4 0.05 145.65 -0.25 145.85 -0.45 146.15 -0.65 146.5 -0.85 146.85 -1.05 147.2 -1.25 147.55
L -1.2 147.8 -1 147.95
Q -0.7 147.85 -0.5 147.75 -0.3 147.7 -0.15 147.7 0 147.6 0.2 147.55 0.3 147.5 0.45 147.45 0.6 147.45 0.7 147.6 0.75 147.75 0.75 147.95 0.75 148.15 0.7 148.45 0.6 148.75 0.6 148.9 0.6 149.1 0.65 149.55 0.7 150.05 0.7 150.25 0.5 151.5 0.3 152.7 0.45 153.4 0.5 154.15 0.45 154.95 0.4 155.5 0.35 156.1 0.3 156.45 0.25 156.75 0.25 156.9 0.25 157.3 0.3 158.1 0.4 158.95 0.4 159.35 0.4 160.3 0.4 160.85 0.45 161.4 0.5 161.6 0.6 162.3 1 162.6 1.35 162.95 1.9 162.95 2.1 162.95 2.2 162.95 2.35 162.95 2.45 162.95 2.8 162.55 2.95 162.1 3.1 161.7 3.1 161.35 3.1 159.6 3.25 157.85 3.35 156.1 3.65 154.25 3.65 154 3.65 153.8 3.6 153.6 3.6 153.4
L 4.05 150.7 3.85 150 4.1 149
Q 4.3 147.85 4.6 147.35 4.85 146.8 5.15 146.8 5.7 146.85 5.85 146.85 6.15 146.85 6.5 146.75 6.8 146.65 7.1 146.4 7.5 146.4 8.35 146.25 9.15 146.1 9.6 146.1 10.3 146.1 10.9 146.05 11.55 145.95 12.1 145.8 13.65 146.15 14.5 146.35 15.35 146.5 15.6 146.5 15.9 145.95 16.2 145.45 16.25 144.5 16.3 143.95 16.35 143.35 16.35 143.25 16.35 142.55 15.65 142.2 15 141.8 13.65 141.8 12.85 141.9 12.1 142.05 11.65 142.05 11.3 142.05 10.95 142.05 10.7 142.05 9.9 142.3 9.15 142.45 8.4 142.6 7.7 142.7 6.85 142.9 6.3 143.1 5.7 143.3 5.35 143.45 5.15 143.45 5.05 143.3 4.95 143.1 4.95 142.75 4.95 142.55 5.1 142.2 5.25 141.85 5.25 141.7 5.9 138.7 6.35 137.1 6.7 135.45 6.9 135.2 7.45 134.2 7.7 133.6 7.9 132.95 9.35 132.65 9.9 132.5 10.4 132.4 10.85 132.35 11.25 132.35 11.7 132.4 12.1 132.45
L 12.95 132.1
Q 13.6 132.4 14.2 132.65 14.85 132.9 15.45 133.15 15.7 133.1 15.9 132.7 16.1 132.25 16.25 131.4 16.4 130.75 16.45 130.2 16.5 129.65 16.5 129.25
M 70.1 143.85
Q 69.2 143.85 68.35 144.7 67.5 145.55 66.65 147.3 66.4 147.85 66 148.5 65.6 149.15 65.05 149.85 64.45 150.75 63.95 151.3 63.45 151.8 63.1 152 62.55 152.35 62.2 152.6 61.8 152.85 61.7 152.95 62 153.6 62.25 154.1 62.5 154.6 62.65 155.05 62.95 154.7 63.65 154.2 64.35 153.75 64.65 153.4 65.05 152.95 65.35 152.6 65.65 152.25 65.9 152 66.05 151.85 66.2 151.7 66.4 151.5 66.65 151.4 67.35 155.7 67.7 157.95 68.1 160.15 68.25 160.35
L 68.65 160.75
Q 68.85 160.85 69 160.9 69.1 160.9 69.25 160.9 69.75 160.9 70.1 160.7 70.5 160.55 70.75 160.25 70.95 159.8 71.15 159.45 71.4 159 71.55 158.6
L 72.35 157.15
Q 72.5 156.85 72.6 156.55 72.65 156.25 72.7 156 73.25 155.05 73.7 154.25 74.05 153.5 74.3 153.2 74.55 152.85 74.65 152.85
L 74.75 153.05
Q 74.75 153.25 74.65 153.65 74.55 154.05 74.55 154.3 74.55 157 74.95 158.3 75.4 159.65 76.25 159.65 76.9 159.65 77.55 159.25 78.2 158.9 78.8 158.15 78.9 158.05 79.35 157.4 79.8 156.75 80.55 155.6 81.75 153.75 82.3 152.25 83.05 151.1 83.7 149.75 84.3 148.45 84.75 146.95 85.2 145.55 85.45 144.3 85.65 143.05 85.65 141.9 85.65 141.55 85.5 141.35 85.3 141.15 84.9 141.15 84.5 141.15 84.2 141.45 83.9 141.7 83.75 142.3 83.65 142.7 83.55 143.15 83.45 143.6 83.35 144.05
L 83.55 144.7
Q 83.3 145.25 83.05 145.8 82.8 146.35 82.6 146.85 82.3 147.5 82.15 148.05 81.95 148.65 81.85 149.15 80.45 151.95 79.55 153.35 78.6 154.75 78.15 154.75 77.9 154.45 77.8 154.15 77.7 153.9 77.7 153.65 77.7 153.45 77.7 153.35 77.9 151 77.95 149.9
L 78.05 148.95
Q 78 148.8 77.95 148.6 77.9 148.45 77.85 148.25 78 147.4 78.15 146.55 78.15 146.25 78.2 146.1 78.25 145.9 78.35 145.8 78.6 145.65 78.75 145.45 78.9 145.2 78.9 144.9 78.9 144.15 78.65 143.75 78.35 143.35 77.8 143.35 76.35 143.35 74 148.55 71.7 153.7 71.2 153.7
L 71 153.5
Q 70.95 153.4 70.85 152.85 70.8 152.25 70.7 151.2 70.65 150.2 70.6 149.55 70.55 148.9 70.55 148.6 70.55 147.85 70.65 146.5 70.75 145.15 70.75 144.5 70.75 144.15 70.6 144 70.4 143.85 70.1 143.85
M 45.85 146.95
Q 45.15 147.75 44.55 148.35 43.95 148.9 43.5 149.3 42.3 150.45 41.4 151.35 40.55 152.25 39.95 152.8 39.2 153.4 38.6 153.85 38.05 154.25 37.6 154.55
L 37.5 154.55
Q 37.35 154.55 37.25 154.5 37.15 154.4 37.15 154.15 37.15 153.1 37.85 151.15 38.5 149.15 38.5 148.25 38.5 147.65 38.2 147.35 37.9 147.1 37.35 147.1 36.9 147.1 36.45 147.3 36 147.55 35.55 147.95 34.8 148.75 34.25 149.35 33.7 149.95 33.35 150.35 32.85 150.85 31.75 151.65 30.65 152.4 30.1 152.95
L 30.1 152.95
Q 29.6380859375 153.4091796875 29.2 153.75 28.8 154.1 28.5 154.25 27.5 154.6 26.95 154.75 26.35 154.95 26.25 154.95 24.45 154.95 23.6 153.8 22.7 152.65 22.7 150.45 23.45 149.3 24.15 148.05 24.7 147.25 25.1 146.65 25.55 146.1 25.8 145.7 26 145.25 26.15 144.95 26.3 144.6 26.45 144.35 26.75 143.85 27 143.55 27.25 143.2 27.35 142.95 27.65 142.4 27.8 142 27.95 141.6 28.05 141.35 28.3 140.9 28.5 140.6 28.7 140.25 28.85 140 29.2 139.1 29.45 138.35 29.7 137.6 29.85 137.05 30.15 136.4 30.35 135.95 30.55 135.45 30.6 135.15
L 30.6 134.85
Q 30.7 134.65 30.7 134.45 30.7 133.85 30.95 133.15 31.2 132.45 31.2 132.05 31.2 131.65 31.35 130.9 31.45 130.15 31.45 129.75 31.45 128.35 31 127.85 30.5 127.3 29.15 127.3 28.5 127.3 27.65 128.2 26.8 129.15 25.75 130.95 24.95 132.35 24.3 133.65 23.65 134.95 23.25 136.15 22.95 136.85 22.7 137.4 22.45 138 22.2 138.35 21.5 140.5 21 142.3 20.45 144.15 20.15 145.65
L 20.25 146.1
Q 20.1 146.35 19.9 147.6 19.7 148.85 19.7 149.35 19.75 149.55 19.75 149.85 19.75 150.05 19.75 150.15 19.75 150.3 19.65 150.35
L 18.15 151.7
Q 17.8 152.05 17.6 152.4 17.4 152.75 17.15 152.95
L 18.1 155.05
Q 18.65 154.55 19.1 154.15 19.45 153.7 19.75 153.4 19.95 153.65 20.05 153.8 20.15 153.95 20.2 154.15 20.5 156.2 21.35 157.25 22.2 158.3 23.5 158.3 23.9 158.3 24.65 158.4 25.4 158.45 25.75 158.45 26.45 158.45 27.2 158.15 27.95 157.85 28.65 157.25 29.25 156.7 29.85 156.15 30.45 155.6 31.05 155.05 31.7 154.55 32.15 154.2 32.6 153.8 32.85 153.65
L 32.95 153.6
Q 33.2 153.6 33.3 153.95 33.4 154.25 33.4 154.95 33.3 155.45 33.2 155.85 33.35 156.25 33.45 156.45 33.4 156.75 33.35 156.95 33.3 157.15 33.3 157.3 33.3 158.05 33.7 158.4 34.1 158.75 34.85 158.75 35.9 158.75 36.7 158.3 37.45 157.8 37.95 156.8 38.75 156.45 39.5 155.85 40.3 155.15 41.05 154.2 41.6 153.65 42.15 153.2 42.6 152.8 43 152.6 43.1 152.85 43.15 153.05 43.15 153.15 43.2 153.25 43.05 154.25 42.9 155.15 42.7 156 42.5 156.65 42 157.8 41.65 158.65 41.3 159.5 41 160.1 40.9 160.35 40.8 160.6 40.7 160.85 40.6 161.05 40.05 161.65 39.3 162.5 38.5 163.35 37.55 164.45 36.3 165.95 35.6 166.9 34.9 167.85 34.75 168.25 34.5 168.45 34.35 168.65 34.15 168.8 34.05 168.9 34.05 169.05 34 169.3
L 33.3 169.9
Q 32.95 170.6 32.5 171.2 32.2 171.6 32.1 171.95 32 172.3 32 172.5 32 172.95 32.2 173.15 32.45 173.35 32.95 173.35 34.3 173.35 35.7 172.35 37.1 171.35 38.7 169.25 39.15 168.6 40.2 167.05 41.2 165.45 42.75 162.9 43.8 161.25 45.55 159.55 47.3 157.85 49.75 156.1 50.2 155.8 50.45 155.55 50.7 155.25 50.9 155.05
L 49.95 152.95
Q 48.55 154.4 47.6 155.3 46.6 156.15 46.15 156.35
L 46 156.15
Q 46.5 154.75 46.9 153.55 47.35 152.35 47.75 151.5 48.2 150.15 48.5 149.15 48.85 148.15 49 147.5 49 147.35 49.05 147.2 49.1 147.05 49.1 146.9 49.1 146.5 48.8 146.3 48.55 146.1 48 146.1 47.25 146.1 46.7 146.35 46.15 146.55 45.85 146.95
M 27.95 134.85
L 28.1 134.95
Q 28.05 135.4 27.95 135.85 27.8 136.3 27.8 136.75 27.75 137.3 26.95 139.4 26.1 141.5 25.75 142 25.3 142.75 25 143.3 24.65 143.85 24.45 144.25 24.05 145 23.75 145.4 23.45 145.8 23.25 145.8
L 23.1 145.65
Q 23.1 145.3 23.35 144.5 23.6 143.7 24 142.4 24.4 141.55 24.75 140.85 25.05 140.25 25.25 139.9 25.35 139.5 25.35 139.35 25.35 138.3 26.05 137.2 26.65 136.1 27.95 134.85
M 30.4 153.4
Q 30.6 153.95 30.75 154.35
L 30.2 153.05
Q 30.2435546875 153.0935546875 30.3 153.15 30.35 153.25 30.4 153.4
M 216.6 157.55
Q 217 158.85 217.65 159.5 218.3 160.15 219.25 160.15 219.55 160.15 219.7 160 219.9 159.8 220 159.5 220.35 159.2 220.5 158.9 220.7 158.6 220.7 158.3 220.7 157.65 220.5 157.05 220.35 156.45 219.95 155.85 219.55 155.2 219.05 154.85 218.5 154.55 217.9 154.55 217.55 154.55 217.3 154.75 217.05 154.95 216.9 155.35 216.8 155.7 216.75 156.05 216.65 156.4 216.5 156.75
L 216.75 157.35 216.6 157.55
M 168.15 129.75
Q 168.15 128.35 167.7 127.85 167.2 127.3 165.85 127.3 165.2 127.3 164.35 128.2 163.5 129.15 162.45 130.95 161.65 132.35 161 133.65 160.35 134.95 159.95 136.15 159.65 136.85 159.4 137.4 159.15 138 158.9 138.35 158.2 140.5 157.7 142.3 157.15 144.15 156.85 145.65
L 156.95 146.1
Q 156.8 146.35 156.6 147.6 156.4 148.85 156.4 149.35 156.45 149.55 156.45 149.85 156.45 150.05 156.45 150.15 156.45 150.3 156.35 150.35
L 154.85 151.7
Q 154.5 152.05 154.3 152.4 154.1 152.75 153.85 152.95
L 153.85 152.95
Q 153.2876953125 153.4623046875 152.9 153.85 152.5 154.25 152.25 154.55 152.1 154.7 151.95 154.8 151.75 154.85 151.65 154.95 150.85 155.45 150 155.95 149.2 156.45 148.4 156.95 147.75 157.15 147.2 157.3 146.6 157.4 146.25 157.55 145.65 157.35 145.25 157.2 144.85 157.05 144.65 156.9 144.3 156.65 144.15 156.3 144 155.9 144 155.35 144 154.7 144.1 154.15 144.25 153.65 144.45 153.2 144.65 152.95 145.05 152.6 145.45 152.2 146.1 151.7 147.45 150.65 148.25 150.05 149 149.4 149.2 149.15 149.7 148.95 150.2 148.65 150.7 148.4 151.2 148.15 151.95 147.75 152.35 147.2 152.75 146.7 152.75 146.05
L 152.75 144.75
Q 152.7 144.5 152.5 144.3 152.3 144.15 151.95 144.15 151.15 144.15 149.85 144.75 148.5 145.4 148.05 146.05 147.35 146.35 146.55 146.85 145.8 147.3 145 148 143.65 149.15 142.2 150.4 141.85 150.65 141.5 150.9 141.1 151.15 140.75 151.4 140.2 151.85 139.9 152.2 139.6 152.55 139.6 152.8
L 139.35 152.95
Q 139.65 153.5 139.9 154.05 140.15 154.55 140.3 155.05 140.3 155.25 140.2 155.65 140.05 156.05 140.05 156.25 140.05 156.9 140.15 157.35 140.2 157.85 140.45 158.15 140.6 158.45 140.95 158.8 141.3 159.1 141.8 159.5 142.25 159.8 142.95 160.3 143.2 160.4 143.55 160.45 143.85 160.55 144.3 160.55 146.25 160.55 147.8 159.95 149.3 159.35 150.45 158.2 150.7 157.95 151.1 157.65 152.2 157.2 153.05 156.5 153.95 155.75 154.8 155.05 155.35 154.55 155.8 154.15 156.15 153.7 156.45 153.4 156.65 153.65 156.75 153.8 156.85 153.95 156.9 154.15 157.2 156.2 158.05 157.25 158.9 158.3 160.2 158.3 160.6 158.3 161.35 158.4 162.1 158.45 162.45 158.45 163.15 158.45 163.9 158.15 164.65 157.85 165.35 157.25 165.95 156.7 166.55 156.15 167.15 155.6 167.75 155.05
L 166.85 152.95
Q 166.35 153.4 165.9 153.75 165.5 154.1 165.2 154.25 164.2 154.6 163.65 154.75 163.05 154.95 162.95 154.95 161.15 154.95 160.3 153.8 159.4 152.65 159.4 150.45 160.15 149.3 160.85 148.05 161.4 147.25 161.8 146.65 162.25 146.1 162.5 145.7 162.7 145.25 162.85 144.95 163 144.6 163.15 144.35 163.45 143.85 163.7 143.55 163.95 143.2 164.05 142.95 164.35 142.4 164.5 142 164.65 141.6 164.75 141.35 165 140.9 165.2 140.6 165.4 140.25 165.55 140 165.9 139.1 166.15 138.35 166.4 137.6 166.55 137.05 166.85 136.4 167.05 135.95 167.25 135.45 167.3 135.15
L 167.3 134.85
Q 167.4 134.65 167.4 134.45 167.4 133.85 167.65 133.15 167.9 132.45 167.9 132.05 167.9 131.65 168.05 130.9 168.15 130.15 168.15 129.75
M 164.8 134.95
Q 164.75 135.4 164.65 135.85 164.5 136.3 164.5 136.75 164.45 137.3 163.65 139.4 162.8 141.5 162.45 142 162 142.75 161.7 143.3 161.35 143.85 161.15 144.25 160.75 145 160.45 145.4 160.15 145.8 159.95 145.8
L 159.8 145.65
Q 159.8 145.3 160.05 144.5 160.3 143.7 160.7 142.4 161.1 141.55 161.45 140.85 161.75 140.25 161.95 139.9 162.05 139.5 162.05 139.35 162.05 138.3 162.75 137.2 163.35 136.1 164.65 134.85
L 164.8 134.95
M 204.4 147.55
Q 204.2 147.85 204 148.1 203.85 148.35 203.65 148.5 203.2 148.95 202.85 149.25 202.45 149.6 202.2 149.75 202.15 149.9 201.95 150.15 201.85 150.3 201.45 150.6 201 150.9 200.25 151.4 199.65 151.75 199.35 152.1 199.05 152.5 198.95 152.8
L 198.8 152.95 198.8 152.95
Q 198.6896484375 153.0970703125 198.3 153.4 197.85 153.8 197.05 154.55 196.35 155.15 195.95 155.5 195.5 155.8 195.35 155.8 195.15 155.7 195.1 155.6 195.4 154.7 195.6 154.05 195.8 153.4 195.95 152.95 196.8 150.3 196.95 149.8 197.05 149.3 197.4 146.95 197.5 146.15 197.6 145.65 197.65 145.1 197.65 144.9 197.65 143.95 197.15 143.5 196.6 143 195.6 143 195.35 143 195.1 143.05 194.8 143.15 194.5 143.3 193.6 144.1 192.9 144.85 192.15 145.55 191.6 146.2 191.1 146.7 190.7 147 190.35 147.35 190.05 147.55 189.85 147.85 189.65 148.1 189.5 148.35 189.3 148.5 188.85 148.95 188.5 149.25 188.1 149.6 187.85 149.75 187.8 149.9 187.6 150.15 187.5 150.3 187.1 150.6 186.65 150.9 185.9 151.4 185.3 151.75 185 152.1 184.7 152.5 184.6 152.8
L 184.45 152.95 184.45 152.95
Q 184.33359375 153.11640625 184.2 153.25 184 153.35 183.9 153.4 183.75 153.6 183.6 153.75 183.45 153.95 183.3 154.15 183.1 154.35 182.9 154.45 182.7 154.55 182.5 154.55 181.8 154.55 181.4 154 180.95 153.4 181 152.65 181 151.6 181.05 150.45 181 149.7 180.75 149.35 180.5 148.95 180 148.95 179.2 148.95 178.3 149.55 177.4 150.15 176.3 151.4 176.1 151.55 175.95 151.65 175.8 151.75 175.65 151.85 175.45 151.95 174.95 152.45 174.45 152.85 173.65 153.6 173 154.2 172.45 154.6 171.9 155 171.4 155.15
L 171.25 154.95
Q 171.9 154 172.3 153.45 172.7 152.85 172.9 152.7 174.15 151.6 174.95 150.8 175.7 150 175.95 149.45 176.45 149.1 176.8 148.8 177.1 148.5 177.2 148.35 177.4 148.15 177.6 147.85 178.3 147.3 178.85 146.8 179.4 146.25 179.75 145.75 180.4 145.25 181 144.85 181.35 144.6 181.55 144.2 181.7 143.85 181.7 143.35 181.7 142.9 181.4 142.65 181.1 142.4 180.5 142.4 179.45 142.4 177.9 143.4 176.3 144.4 174.2 146.35 173.75 146.8 173.35 147.05 172.95 147.3 172.7 147.45 172.2 147.9 171.85 148.25 171.5 148.6 171.3 148.85 171 149 170.75 149.2 170.45 149.4 170.3 149.7 170.1 150.05 169.9 150.3 169.75 150.45 169.65 150.55
L 167.55 151.95
Q 167.35 152.35 167.15 152.6 167 152.85 166.9 152.95 167.1 153.4 167.3 153.85 167.45 154.2 167.6 154.55 167.65 154.7 167.75 154.85 167.8 154.95 167.8 155.05 167.8 155.25 167.75 155.55 167.2 156.1 166.95 156.65 166.7 157.2 166.7 157.85 166.7 158.95 167.2 159.5 167.75 160.05 168.85 160.05 169 160.05 169.35 159.9 169.7 159.75 170.15 159.5 170.95 159.05 171.55 158.7 172.15 158.3 172.6 157.9 172.85 157.65 173.4 157.15 173.95 156.6 174.75 155.8 175.35 155.3 175.8 154.95 176.25 154.6 176.55 154.4 176.7 154.2 176.85 154.05 177 153.95 177.1 153.8 177.3 154.05 177.35 154.25 177.4 154.5 177.4 154.7 177.55 156.4 178.35 157.25 179.15 158.1 180.65 158.1 181.3 158.1 181.9 157.85 182.55 157.55 183.25 157.05 183.85 156.6 184.35 156.1 184.85 155.55 185.4 155.05 185.6 154.75 185.8 154.5 185.95 154.25 186.05 154.1 188.95 151.4 190.6 150 192.25 148.6 192.55 148.6 192.85 148.6 192.95 148.8 193.1 148.9 193.1 149.2 193.1 149.65 193.05 150.4 193 151.2 192.85 152.25 192.65 153.45 192.5 154.1 192.3 154.75 192.15 154.75 192 154.75 191.85 154.4 191.7 154 191.35 154 190.7 154 190.15 154.5 189.65 154.9 189.65 155.6 189.65 155.7 189.8 156.3 189.8 156.45 189.75 156.7 189.75 156.9 189.75 157.05 189.75 158.05 189.95 158.85 190.15 159.65 190.5 160.3 190.45 160.65 190.6 160.9 190.7 161.1 190.95 161.2 191.35 161.05 191.75 160.9 192.1 160.8 192.45 160.65 192.7 160.55 193 160.35 193.25 160.1 193.6 159.65
L 194 159.55
Q 194.75 158.95 195.35 158.45 195.95 157.95 196.25 157.6 197.05 157.15 197.65 156.7 198.3 156.3 198.75 156 199 155.7 199.25 155.5 199.45 155.25 199.75 155.05 199.95 154.75 200.15 154.5 200.3 154.25 200.4 154.1 203.3 151.4 204.95 150 206.6 148.6 206.9 148.6 207.2 148.6 207.3 148.8 207.45 148.9 207.45 149.2 207.45 149.65 207.4 150.4 207.35 151.2 207.2 152.25 207 153.45 206.85 154.1 206.65 154.75 206.5 154.75 206.35 154.75 206.2 154.4 206.05 154 205.7 154 205.05 154 204.5 154.5 204 154.9 204 155.6 204 155.7 204.15 156.3 204.15 156.45 204.1 156.7 204.1 156.9 204.1 157.05 204.1 158.05 204.3 158.85 204.5 159.65 204.85 160.3 204.8 160.65 204.95 160.9 205.05 161.1 205.3 161.2 205.7 161.05 206.1 160.9 206.45 160.8 206.8 160.65 207.05 160.55 207.35 160.35 207.6 160.1 207.95 159.65
L 208.35 159.55
Q 209.1 158.95 209.7 158.45 210.3 157.95 210.6 157.6 211.4 157.15 212 156.7 212.65 156.3 213.1 156 213.35 155.7 213.6 155.5 213.8 155.25 214.1 155.05 213.95 154.6 213.7 154.1 213.5 153.6 213.2 152.95 213.1 153.05 212.65 153.4 212.2 153.8 211.4 154.55 210.7 155.15 210.3 155.5 209.85 155.8 209.7 155.8 209.5 155.7 209.45 155.6 209.75 154.7 209.95 154.05 210.15 153.4 210.3 152.95 211.15 150.3 211.3 149.8 211.4 149.3 211.75 146.95 211.85 146.15 211.95 145.65 212 145.1 212 144.9 212 143.95 211.5 143.5 210.95 143 209.95 143 209.7 143 209.45 143.05 209.15 143.15 208.85 143.3 207.95 144.1 207.25 144.85 206.5 145.55 205.95 146.2 205.45 146.7 205.05 147 204.7 147.35 204.4 147.55
M 199.2 153.75
Q 199.3201171875 154.000390625 199.4 154.2 199.3751953125 154.150390625 199.35 154.1 199.2849609375 153.9376953125 199.2 153.75 Z"/>
</g>

<g id="Layer1_0_FILL">
<path fill="#FFFFFF" stroke="none" d="
M 676.15 91.9
L 663.55 95.95 688.35 108.55 705.85 100.45 676.15 91.9
M 810.8 93.5
Q 824.6 85.05 821.4 80.35 816.25 72.75 810.8 76.45 811.75 78.45 810.8 80.1 809 83.2 800.2 84.95
L 800.2 79.7
Q 807.55 76.95 807.15 73.6 803.45 70.7 786.4 73.6
L 649.3 129.7
Q 630.55 138.1 585 108.55
L 570.4 113.45 598.45 152.5 584.25 161.05 588.7 165.5
Q 651.75 162.45 710.4 137.4 710.8 137.2 711.15 137.05 715.65 136.9 710.4 147.65 707.35 153.9 700.95 163.9 705.7 164.9 710.4 162.65 712.6 161.55 714.8 159.8
L 748.15 121.15
Q 793.25 104.25 810.8 93.5 Z"/>
</g>

<path id="Layer3_0_MEMBER_0_1_STROKES" stroke="#FFFFFF" stroke-width="5" stroke-linejoin="miter" stroke-linecap="square" stroke-miterlimit="3" fill="none" d="
M 640.1 73.5
L 621.75 73.5 621.75 67.85
Q 621.75 63.9 621.05 62.85 620.35 61.75 618.75 61.75 616.95 61.75 616.05 63.2 615.1 64.65 615.1 67.6 615.1 71.4 616.15 73.35 617.15 75.25 621.75 78 634.9 85.8 638.3 90.8 641.75 95.85 641.75 107 641.75 115.1 639.85 118.95 637.95 122.8 632.5 125.4 627.05 128 619.85 128 611.95 128 606.35 125 600.75 122 599 117.35 597.25 112.7 597.25 104.2
L 597.25 99.2 615.6 99.2 615.6 108.45
Q 615.6 112.7 616.4 113.95 617.15 115.15 619.1 115.15 621.05 115.15 622.05 113.6 623 112.05 623 109 623 102.3 621.15 100.25 619.3 98.2 611.95 93.35 604.55 88.5 602.2 86.3 599.8 84.05 598.25 80.2 596.65 76.3 596.65 70.25 596.65 61.55 598.9 57.5 601.1 53.45 606.05 51.2 611.05 48.9 618.05 48.9 625.75 48.9 631.2 51.4 636.6 53.9 638.35 57.7 640.1 61.45 640.1 70.5
L 640.1 73.5 Z
M 594.95 50.5
L 580.55 98.95 580.55 126.4 562.25 126.4 562.25 98.95 548.4 50.5 566.55 50.5
Q 570.75 72.75 571.3 80.4 572.95 68.3 576.8 50.5
L 594.95 50.5 Z
M 506.95 50.5
L 498.15 126.4 473.5 126.4
Q 470.15 108.9 467.55 86.6 466.35 96.15 462.05 126.4
L 437.5 126.4 428.7 50.5 447.85 50.5 452 102.6
Q 453.1 82.7 457.45 50.5
L 477.9 50.5
Q 478.35 53.85 480.1 75.55
L 482.3 104.4
Q 483.9 76.85 487.75 50.5
L 506.95 50.5 Z
M 544 50.5
L 555.3 126.4 535.1 126.4 534.1 112.75 527 112.75 525.85 126.4 505.45 126.4 515.45 50.5 544 50.5 Z
M 533.55 99.3
Q 532.05 86.4 530.55 67.45 527.5 89.25 526.75 99.3
L 533.55 99.3 Z
M 380.95 50.5
L 394.9 50.5
Q 408.9 50.5 413.85 51.6 418.75 52.65 421.9 57.1 425 61.55 425 71.25 425 80.1 422.8 83.15 420.6 86.2 414.15 86.8 420 88.25 422 90.7 424 93.1 424.55 95.2 425 97.2 425 106.4
L 425 126.4 406.65 126.4 406.65 101.2
Q 406.65 95.1 405.75 93.65 404.75 92.2 400.65 92.2
L 400.65 126.4 380.95 126.4 380.95 50.5 Z
M 400.65 63.5
L 400.65 80.35
Q 404 80.35 405.35 79.5 406.65 78.55 406.65 73.55
L 406.65 69.35
Q 406.65 65.75 405.4 64.6 404.1 63.5 400.65 63.5 Z
M 373 50.5
L 373 126.4 353.3 126.4 353.3 50.5 373 50.5 Z
M 338.65 50.5
L 349.95 126.4 329.75 126.4 328.75 112.75 321.65 112.75 320.5 126.4 300.1 126.4 310.1 50.5 338.65 50.5 Z
M 328.2 99.3
Q 326.7 86.4 325.2 67.45 322.15 89.25 321.4 99.3
L 328.2 99.3 Z
M 279.7 50.5
L 279.7 126.4 260 126.4 260 94.55 254.05 94.55 254.05 126.4 234.35 126.4 234.35 50.5 254.05 50.5 254.05 77.65 260 77.65 260 50.5 279.7 50.5 Z
M 226.55 73.5
L 208.2 73.5 208.2 67.85
Q 208.2 63.9 207.5 62.85 206.8 61.75 205.2 61.75 203.4 61.75 202.5 63.2 201.55 64.65 201.55 67.6 201.55 71.4 202.6 73.35 203.6 75.25 208.2 78 221.35 85.8 224.75 90.8 228.2 95.85 228.2 107 228.2 115.1 226.3 118.95 224.4 122.8 218.95 125.4 213.5 128 206.3 128 198.4 128 192.8 125 187.2 122 185.45 117.35 183.7 112.7 183.7 104.2
L 183.7 99.2 202.05 99.2 202.05 108.45
Q 202.05 112.7 202.85 113.95 203.6 115.15 205.55 115.15 207.5 115.15 208.5 113.6 209.45 112.05 209.45 109 209.45 102.3 207.6 100.25 205.75 98.2 198.4 93.35 191 88.5 188.65 86.3 186.25 84.05 184.7 80.2 183.1 76.3 183.1 70.25 183.1 61.55 185.35 57.5 187.55 53.45 192.5 51.2 197.5 48.9 204.5 48.9 212.2 48.9 217.65 51.4 223.05 53.9 224.8 57.7 226.55 61.45 226.55 70.5
L 226.55 73.5 Z
M 176.8 50.5
L 176.8 126.4 157.1 126.4 157.1 50.5 176.8 50.5 Z
M 60 50.5
L 73.95 50.5
Q 87.95 50.5 92.9 51.6 97.8 52.65 100.95 57.1 104.05 61.55 104.05 71.25 104.05 80.1 101.85 83.15 99.65 86.2 93.2 86.8 99.05 88.25 101.05 90.7 103.05 93.1 103.6 95.2 104.05 97.2 104.05 106.4
L 104.05 126.4 85.7 126.4 85.7 101.2
Q 85.7 95.1 84.8 93.65 83.8 92.2 79.7 92.2
L 79.7 126.4 60 126.4 60 50.5 Z
M 79.7 63.5
L 79.7 80.35
Q 83.05 80.35 84.4 79.5 85.7 78.55 85.7 73.55
L 85.7 69.35
Q 85.7 65.75 84.45 64.6 83.15 63.5 79.7 63.5 Z
M 139.55 74.95
L 137.1 62.15 137.1 50.5 151.45 50.5 151.45 62.15 149.3 74.95 139.55 74.95 Z
M 131.4 50.5
L 131.4 126.4 111.7 126.4 111.7 50.5 131.4 50.5 Z
M 26.7 63.5
L 26.7 80.35
Q 28 80.3 28.7 80.3 31.6 80.3 32.4 78.9 33.2 77.45 33.2 70.7 33.2 67.15 32.55 65.75 31.9 64.3 30.85 63.9 29.75 63.55 26.7 63.5 Z
M 26.7 92.2
L 26.7 113.4
Q 30.9 113.3 32.05 112.1 33.2 110.95 33.2 106.35
L 33.2 99.25
Q 33.2 94.4 32.15 93.35 31.15 92.3 26.7 92.2 Z
M 7 50.5
L 26.7 50.5
Q 36 50.5 40.85 51.95 45.6 53.4 48.55 57.8 51.5 62.3 51.5 72.1 51.5 78.8 49.45 81.4 47.35 84.05 41.2 85.45 48.05 87 50.5 90.55 52.95 94.15 52.95 101.55
L 52.95 108.6
Q 52.95 116.3 51.2 120 49.4 123.7 45.55 125.05 41.7 126.4 29.8 126.4
L 7 126.4 7 50.5 Z"/>
</defs>

<g id="Layer_1"/>

<g id="Layer_2">
<g transform="matrix( 1, 0, 0, 1, 0,0) ">
<use xlink:href="#Layer4_0_FILL"/>
</g>

<g transform="matrix( 1.3184356689453125, 0, 0, 1.3184356689453125, 45.05,-48.55) ">
<use xlink:href="#Layer4_1_FILL"/>
</g>
</g>

<g id="Layer_4">
<g transform="matrix( 1, 0, 0, 1, -3.6,-12.6) ">
<use xlink:href="#Layer3_0_MEMBER_0_1_STROKES"/>
</g>
</g>

<g id="Layer_5"/>

<g id="Layer_6">
<g transform="matrix( 1, 0, 0, 1, 0,0) ">
<use xlink:href="#Layer1_0_FILL"/>
</g>
</g>
</svg>
