
<svg xmlns="http://www.w3.org/2000/svg" version="1.1" xmlns:xlink="http://www.w3.org/1999/xlink" preserveAspectRatio="none" x="0px" y="0px" width="850px" height="180px" viewBox="0 0 850 180">
<defs>
<g id="Layer1_0_FILL">
<path fill="#FFFFFF" stroke="none" d="
M 344 -48.05
L 344 -38.4 357.6 -38.4 357.6 -24.7 367.5 -24.7 367.5 -38.4 381.1 -38.4 381.1 -48.05 367.5 -48.05 367.5 -61.75 357.6 -61.75 357.6 -48.05 344 -48.05
M 323.6 -62.3
L 313.7 -62.3 313.7 -48.55 300.1 -48.55 300.1 -38.95 313.7 -38.95 313.7 -25.2 323.6 -25.2 323.6 -38.95 337.2 -38.95 337.2 -48.55 323.6 -48.55 323.6 -62.3
M 43.25 -16.55
Q 58.5 -16.55 58.5 -39.2 58.5 -61.75 43.25 -61.75 27.95 -61.75 27.95 -39.2 27.95 -16.55 43.25 -16.55
M 43.25 -53.35
Q 45.7 -53.35 46.7 -50.4 47.65 -47.5 47.65 -39.15 47.65 -31.15 46.75 -28.1 45.8 -25 43.25 -25 40.55 -25 39.7 -28.1 38.8 -31.2 38.8 -39.15 38.8 -47.8 39.8 -50.55 40.85 -53.35 43.25 -53.35
M 21.25 -60.95
L 10.7 -60.95 10.7 -19.25
Q 10.7 -14.65 10.15 -13.3 9.55 -12 7.25 -12 6.65 -12 5.85 -12.1
L 5.85 -2.15
Q 9.15 -1.55 11.5 -1.55 15.2 -1.55 17.6 -3.5 19.95 -5.5 20.6 -8.8 21.25 -12.15 21.25 -18.9
L 21.25 -60.95
M 16.1 -80.25
Q 13.3 -80.25 11.35 -78.3 9.4 -76.35 9.4 -73.6 9.4 -70.75 11.35 -68.85 13.3 -66.9 16.1 -66.9 18.9 -66.9 20.85 -68.85 22.8 -70.75 22.8 -73.6 22.8 -76.35 20.85 -78.3 18.9 -80.25 16.1 -80.25
M 74.45 -56.85
L 74.45 -76.15 64.15 -76.15 64.15 -17.45 70.35 -17.45
Q 71.25 -20.95 72.35 -23.1 74.7 -16.55 81.15 -16.55 87.65 -16.55 91 -22.6 94.4 -28.65 94.4 -39.45 94.4 -50.7 90.95 -56.1 87.5 -61.5 82.3 -61.5 77.5 -61.5 74.45 -56.85
M 75.45 -27.25
Q 74.45 -29.6 74.45 -35.5
L 74.45 -45.5
Q 74.45 -53.45 79.05 -53.45 81.6 -53.45 82.6 -50.05 83.55 -46.6 83.55 -39.15 83.55 -31.5 82.55 -28.25 81.55 -25 78.85 -25 76.4 -25 75.45 -27.25 Z"/>

<path fill="#FBEF00" stroke="none" d="
M 273.6 -61.75
Q 266.5 -61.75 262.25 -55.8 258.05 -49.85 258.05 -38.55 258.05 -28.55 262 -22.55 266 -16.55 273.65 -16.55 286 -16.55 288.55 -31.5
L 279.15 -31.5
Q 278.35 -25 273.9 -25 271.65 -25 270.25 -27 268.9 -28.95 268.9 -34.75
L 268.9 -37.2 288.6 -37.2
Q 288.6 -51.25 284.3 -56.5 280 -61.75 273.6 -61.75
M 278.7 -44.15
L 268.95 -44.15
Q 269 -53.8 273.85 -53.8 278.75 -53.8 278.75 -45.35 278.75 -44.95 278.7 -44.15
M 234.65 -60.95
L 234.65 -17.45 245.15 -17.45 245.15 -36.2
Q 245.15 -49.6 252.85 -49.6 253.45 -49.6 254.6 -49.4
L 254.6 -61.25
Q 253.6 -61.45 252.8 -61.45 246.4 -61.45 243.9 -50.4
L 243.9 -60.95 234.65 -60.95
M 190.95 -61.75
Q 184.1 -61.75 181.5 -55
L 181.5 -60.95 171.55 -60.95 171.55 -17.45 182.05 -17.45 182.05 -42.95
Q 182.05 -48.35 182.95 -50.4 183.85 -52.4 186.65 -52.4 188.3 -52.4 189.3 -51.35 190.25 -50.35 190.25 -45.95
L 190.25 -17.45 200.75 -17.45 200.75 -45.95
Q 200.75 -52 200.1 -55 199.45 -57.95 197.05 -59.85 194.6 -61.75 190.95 -61.75
M 211.15 -74.25
L 211.15 -60.95 206.95 -60.95 206.95 -51.35 211.15 -51.35 211.15 -34.05
Q 211.15 -27.15 211.85 -24 212.55 -20.75 215.1 -18.7 217.65 -16.55 222.4 -16.55 225.3 -16.55 228.85 -17.45
L 228.85 -26.7
Q 227.05 -26.6 225.85 -26.6 223.6 -26.6 222.65 -27.45 221.7 -28.35 221.55 -29.65 221.35 -30.95 221.35 -35.4
L 221.35 -51.35 228.3 -51.35 228.3 -60.95 221.35 -60.95 221.35 -74.6 211.15 -74.25
M 114.55 -61.75
Q 107.25 -61.75 103.2 -56 99.2 -50.15 99.2 -39.1 99.2 -27.9 103 -22.2 106.9 -16.55 114.15 -16.55 127.25 -16.55 128.85 -32.8
L 119.05 -32.8
Q 118.35 -26.35 114.8 -26.35 112.25 -26.35 111 -29.35 109.7 -32.3 109.7 -39.7 109.7 -52.6 115 -52.6 117.1 -52.6 118 -50.5 118.65 -49.05 118.95 -46.65
L 128.75 -46.65
Q 127.05 -61.75 114.55 -61.75
M 150.2 -61.75
Q 143.1 -61.75 138.85 -55.8 134.65 -49.85 134.65 -38.55 134.65 -28.55 138.6 -22.55 142.6 -16.55 150.25 -16.55 162.6 -16.55 165.15 -31.5
L 155.75 -31.5
Q 154.95 -25 150.5 -25 148.25 -25 146.85 -27 145.5 -28.95 145.5 -34.75
L 145.5 -37.2 165.2 -37.2
Q 165.2 -51.25 160.9 -56.5 156.6 -61.75 150.2 -61.75
M 155.35 -45.35
Q 155.35 -44.95 155.3 -44.15
L 145.55 -44.15
Q 145.6 -53.8 150.45 -53.8 155.35 -53.8 155.35 -45.35 Z"/>
</g>
</defs>

<g id="Layer_1"/>

<g id="Layer_2"/>

<g id="Layer_4"/>

<g id="Layer_5"/>

<g id="Layer_6">
<g transform="matrix( 2.2654571533203125, 0, 0, 2.2654571533203125, -13.35,183.5) ">
<use xlink:href="#Layer1_0_FILL"/>
</g>
</g>
</svg>
